<svg xmlns="http://www.w3.org/2000/svg" xmlns:xlink="http://www.w3.org/1999/xlink" version="1.1" width="360pt" height="504pt" viewBox="0 0 360 504">
<defs>
<clipPath id="clip_0">
<path transform="matrix(1,0,0,-1,0,504)" d="M0 504H360V.0000033H0Z" fill-rule="evenodd"/>
</clipPath>
<clipPath id="clip_1">
<path transform="matrix(1,0,0,-1,0,504)" d="M0 0H360V504H0Z"/>
</clipPath>
<clipPath id="clip_2">
<path transform="matrix(1,0,0,-1,0,504)" d="M0 504H360V.0000033H0Z" fill-rule="evenodd"/>
</clipPath>
<clipPath id="clip_3">
<path transform="matrix(1,0,0,-1,0,504)" d="M0 0H360V504H0Z"/>
</clipPath>
<clipPath id="clip_4">
<path transform="matrix(1,0,0,-1,0,504)" d="M5.876619 498.4978H78.62662V425.7478H5.876619Z" fill-rule="evenodd"/>
</clipPath>
<clipPath id="clip_5">
<path transform="matrix(1,0,0,-1,0,504)" d="M0 0H360V504H0Z"/>
</clipPath>
<clipPath id="clip_6">
<path transform="matrix(1,0,0,-1,0,504)" d="M281.3364 498.4978H353.7232V425.7478H281.3364Z" fill-rule="evenodd"/>
</clipPath>
<clipPath id="clip_7">
<path transform="matrix(1,0,0,-1,0,504)" d="M0 0H360V504H0Z"/>
</clipPath>
<clipPath id="clip_8">
<path transform="matrix(1,0,0,-1,0,504)" d="M5.909993 78.25337H78.65999V5.503371H5.909993Z" fill-rule="evenodd"/>
</clipPath>
<clipPath id="clip_9">
<path transform="matrix(1,0,0,-1,0,504)" d="M0 0H360V504H0Z"/>
</clipPath>
<clipPath id="clip_10">
<path transform="matrix(1,0,0,-1,0,504)" d="M281.3698 78.25337H353.7565V5.503371H281.3698Z" fill-rule="evenodd"/>
</clipPath>
<clipPath id="clip_11">
<path transform="matrix(1,0,0,-1,0,504)" d="M0 0H360V504H0Z"/>
</clipPath>
<clipPath id="clip_12">
<path transform="matrix(1,0,0,-1,0,504)" d="M0 504H360V.0000033H0Z" fill-rule="evenodd"/>
</clipPath>
<clipPath id="clip_13">
<path transform="matrix(1,0,0,-1,0,504)" d="M0 0H360V504H0Z"/>
</clipPath>
</defs>
<g clip-path="url(#clip_0)">
<g clip-path="url(#clip_1)">
<path transform="matrix(1,0,0,-1,0,504)" d="M0 504H360V.0000033H0Z" fill="#ffffff"/>
</g>
</g>
<g clip-path="url(#clip_2)">
<g clip-path="url(#clip_3)">
<path transform="matrix(1,0,0,-1,0,504)" d="M0 504H360V.0000033H0Z" fill="#dfebed"/>
</g>
</g>
<g clip-path="url(#clip_4)">
<g clip-path="url(#clip_5)">
<path transform="matrix(1,0,0,-1,0,504)" d="M78.89571 493.7413H43.51669C43.48457 493.7413 43.45829 493.7676 43.45829 493.7997V494.2252C43.45829 494.2574 43.48457 494.2836 43.51669 494.2836H78.89571C78.92783 494.2836 78.95411 494.2574 78.95411 494.2252V493.7997C78.95411 493.7676 78.92783 493.7413 78.89571 493.7413" fill="#545454"/>
<path transform="matrix(1,0,0,-1,0,504)" d="M10.59988 425.8075V461.1865C10.59988 461.2186 10.5736 461.2442 10.54148 461.2442H10.1159C10.08378 461.2442 10.05751 461.2186 10.05751 461.1865V425.8075C10.05751 425.7754 10.08378 425.7491 10.1159 425.7491H10.54148C10.5736 425.7491 10.59988 425.7754 10.59988 425.8075" fill="#545454"/>
<path transform="matrix(1,0,0,-1,0,504)" d="M20.07424 495.2144C18.56684 495.0136 18.70188 493.5347 19.68516 492.7142 20.35309 492.158 21.23855 492.085 22.06415 492.101 23.10145 492.1215 23.82193 492.8748 24.24605 493.7595 25.06216 495.4633 23.69784 497.1393 22.21599 497.808 20.67647 498.5022 18.53253 498.0985 17.29303 497.0561 15.17099 495.2713 14.95492 491.7295 16.13748 489.4038 18.74933 484.2633 27.17763 483.7238 31.01804 487.5525 33.21746 489.7447 34.41608 493.5697 32.4539 496.2502 31.26696 497.8707 28.57773 497.8459 26.99733 496.8845 25.57899 496.0217 24.67236 493.999 25.49942 492.4718 26.2221 491.1389 28.19449 491.1426 29.47925 491.3265 31.12972 491.5623 32.46777 493.4989 30.42238 494.2734 29.72817 494.5369 28.32735 494.5771 27.98864 493.7938 28.01127 493.8457 28.78942 493.642 28.86169 493.7938 29.35442 494.8392 30.46691 493.8354 30.53333 493.0558 30.59319 492.3616 29.82453 491.8638 29.30989 491.6083 28.27187 491.0922 27.27253 491.6827 26.70023 492.4718 25.42569 494.2267 27.79227 497.9087 29.93913 497.2262 32.43784 496.4327 32.51668 493.0354 31.87795 491.0374 30.99541 488.2759 28.87702 486.1145 26.05128 485.4064 22.53207 484.5253 18.33032 486.8474 16.91271 490.0921 16.08711 491.982 16.43604 494.3618 17.45216 496.0976 18.01862 497.0663 18.95299 497.7452 20.04431 497.9861 21.8437 498.3832 23.48323 496.513 23.67375 494.9129 23.85113 493.4223 22.47221 491.8397 20.98087 492.3704 19.77422 492.7996 18.5902 494.9246 20.58084 495.2071 20.46842 495.191 20.22972 495.2348 20.07424 495.2144" fill="#545454"/>
<path transform="matrix(1,0,0,-1,0,504)" d="M32.70209 490.1461C33.26418 491.9623 33.8613 493.5113 35.21832 494.8932 37.23159 496.9422 40.54788 497.005 42.31807 494.6873 43.27799 493.4296 43.33857 491.6951 42.64729 490.3213 42.05455 489.1432 40.73183 488.5789 39.86389 489.7775 39.39597 490.4243 39.83177 491.3236 40.39823 491.6944 40.25735 491.6017 39.84637 491.8017 39.6573 491.7024 38.74483 491.2207 38.30101 489.8125 39.43831 489.2191 40.02156 488.9154 40.6581 488.8132 41.31435 488.8818 44.45617 489.2118 44.54231 492.9836 42.97359 495.0238 41.77278 496.5867 39.59307 496.7444 37.79441 496.5422 34.70588 496.1962 32.4174 493.1354 32.3174 490.1461 32.3174 490.1491 32.6926 490.1155 32.70209 490.1461" fill="#545454"/>
<path transform="matrix(1,0,0,-1,0,504)" d="M9.203434 484.3436C9.403447 485.851 10.88311 485.7159 11.7036 484.7319 12.25984 484.0647 12.33284 483.1792 12.31678 482.3536 12.29634 481.3163 11.54301 480.5959 10.65828 480.1725 8.954512 479.3556 7.278487 480.72 6.609829 482.2018 5.915622 483.7413 6.319298 485.8853 7.361704 487.1248 9.146496 489.2468 12.68834 489.4629 15.01404 488.2803 20.15453 485.6685 20.69399 477.2402 16.86526 473.3998 14.67314 471.2003 10.84807 470.0017 8.167598 471.9639 6.547051 473.1508 6.57187 475.8401 7.532519 477.4197 8.39535 478.8388 10.41884 479.7454 11.94595 478.9184 13.27889 478.1957 13.27524 476.2233 13.09129 474.9385 12.8555 473.2881 10.91888 471.95 10.14437 473.9947 9.880852 474.6904 9.840703 476.0897 10.62397 476.4292 10.57141 476.4065 10.7758 475.6284 10.62397 475.5561 9.578641 475.0634 10.58236 473.9516 11.36197 473.8837 12.05618 473.8246 12.55329 474.5925 12.80952 475.1079 13.32561 476.1459 12.73506 477.1445 11.94595 477.7176 10.19109 478.9914 6.509092 476.6248 7.19089 474.4787 7.985104 471.98 11.38241 471.9011 13.38036 472.5398 16.14113 473.4224 18.30332 475.5408 19.01139 478.3665 19.89247 481.8857 17.57042 486.0875 14.32568 487.5051 12.43577 488.3307 10.05532 487.981 8.319433 486.9656 7.351485 486.3992 6.672607 485.4641 6.431715 484.3735 6.034608 482.5734 7.904806 480.9346 9.504914 480.744 10.99625 480.5667 12.57811 481.9456 12.04742 483.4369 11.61819 484.6436 9.493234 485.8269 9.210733 483.837 9.226793 483.9494 9.182265 484.1881 9.203434 484.3436" fill="#545454"/>
<path transform="matrix(1,0,0,-1,0,504)" d="M14.27166 471.7157C12.45548 471.1536 10.90647 470.5565 9.524623 469.1987 7.47558 467.1855 7.412803 463.8699 9.730476 462.0997 10.98823 461.1398 12.72265 461.0792 14.09646 461.7705 15.27464 462.3633 15.83892 463.6852 14.6403 464.5539 13.99354 465.0218 13.09348 464.586 12.72338 464.0188 12.81609 464.1605 12.61607 464.5714 12.71535 464.7598 13.1964 465.6737 14.60526 466.1168 15.19873 464.9795 15.50313 464.3962 15.60459 463.7597 15.53525 463.1034 15.2053 459.9616 11.43424 459.8755 9.393958 461.4442 7.831079 462.645 7.673404 464.8247 7.874877 466.6234 8.221616 469.7112 11.28241 471.9997 14.27166 472.1004 14.26874 472.0997 14.30232 471.7252 14.27166 471.7157" fill="#545454"/>
</g>
</g>
<g clip-path="url(#clip_6)">
<g clip-path="url(#clip_7)">
<path transform="matrix(1,0,0,-1,0,504)" d="M281.0674 493.7413H316.4464C316.4785 493.7413 316.5048 493.7676 316.5048 493.7997V494.2252C316.5048 494.2574 316.4785 494.2836 316.4464 494.2836H281.0674C281.0352 494.2836 281.009 494.2574 281.009 494.2252V493.7997C281.009 493.7676 281.0352 493.7413 281.0674 493.7413" fill="#545454"/>
<path transform="matrix(1,0,0,-1,0,504)" d="M349.3632 425.8075V461.1865C349.3632 461.2186 349.3895 461.2442 349.4216 461.2442H349.8472C349.8793 461.2442 349.9056 461.2186 349.9056 461.1865V425.8075C349.9056 425.7754 349.8793 425.7491 349.8472 425.7491H349.4216C349.3895 425.7491 349.3632 425.7754 349.3632 425.8075" fill="#545454"/>
<path transform="matrix(1,0,0,-1,0,504)" d="M339.8888 495.2144C341.3962 495.0136 341.2612 493.5347 340.2779 492.7142 339.61 492.158 338.7245 492.085 337.8989 492.101 336.8616 492.1215 336.1411 492.8748 335.717 493.7595 334.9009 495.4633 336.2652 497.1393 337.7471 497.808 339.2866 498.5022 341.4305 498.0985 342.67 497.0561 344.7921 495.2713 345.0081 491.7295 343.8256 489.4038 341.2137 484.2633 332.7854 483.7238 328.945 487.5525 326.7456 489.7447 325.547 493.5697 327.5092 496.2502 328.6961 497.8707 331.3853 497.8459 332.9657 496.8845 334.3841 496.0217 335.2907 493.999 334.4636 492.4718 333.741 491.1389 331.7686 491.1426 330.4838 491.3265 328.8333 491.5623 327.4953 493.4989 329.5407 494.2734 330.2349 494.5369 331.6357 494.5771 331.9744 493.7938 331.9518 493.8457 331.1736 493.642 331.1014 493.7938 330.6086 494.8392 329.4962 493.8354 329.4297 493.0558 329.3699 492.3616 330.1385 491.8638 330.6532 491.6083 331.6912 491.0922 332.6905 491.6827 333.2628 492.4718 334.5374 494.2267 332.1708 497.9087 330.0239 497.2262 327.5252 496.4327 327.4464 493.0354 328.0851 491.0374 328.9677 488.2759 331.086 486.1145 333.9118 485.4064 337.431 484.5253 341.6327 486.8474 343.0504 490.0921 343.876 491.982 343.527 494.3618 342.5109 496.0976 341.9444 497.0663 341.0101 497.7452 339.9188 497.9861 338.1194 498.3832 336.4798 496.513 336.2893 494.9129 336.1119 493.4223 337.4909 491.8397 338.9822 492.3704 340.1888 492.7996 341.3729 494.9246 339.3822 495.2071 339.4946 495.191 339.7333 495.2348 339.8888 495.2144" fill="#545454"/>
<path transform="matrix(1,0,0,-1,0,504)" d="M327.261 490.1461C326.6989 491.9623 326.1018 493.5113 324.7447 494.8932 322.7315 496.9422 319.4152 497.005 317.645 494.6873 316.6851 493.4296 316.6245 491.6951 317.3158 490.3213 317.9085 489.1432 319.2312 488.5789 320.0992 489.7775 320.5671 490.4243 320.1313 491.3236 319.5648 491.6944 319.7057 491.6017 320.1167 491.8017 320.3058 491.7024 321.2182 491.2207 321.6621 489.8125 320.5248 489.2191 319.9415 488.9154 319.305 488.8132 318.6487 488.8818 315.5069 489.2118 315.4208 492.9836 316.9895 495.0238 318.1903 496.5867 320.37 496.7444 322.1687 496.5422 325.2572 496.1962 327.5457 493.1354 327.6457 490.1461 327.6457 490.1491 327.2705 490.1155 327.261 490.1461" fill="#545454"/>
<path transform="matrix(1,0,0,-1,0,504)" d="M350.7596 484.3436C350.5596 485.851 349.08 485.7159 348.2595 484.7319 347.7032 484.0647 347.6302 483.1792 347.6463 482.3536 347.6667 481.3163 348.4201 480.5959 349.3048 480.1725 351.0086 479.3556 352.6846 480.72 353.3532 482.2018 354.0474 483.7413 353.6438 485.8853 352.6014 487.1248 350.8166 489.2468 347.2747 489.4629 344.949 488.2803 339.8085 485.6685 339.2691 477.2402 343.0978 473.3998 345.2899 471.2003 349.115 470.0017 351.7955 471.9639 353.416 473.1508 353.3912 475.8401 352.4305 477.4197 351.5677 478.8388 349.5442 479.7454 348.0171 478.9184 346.6842 478.1957 346.6878 476.2233 346.8718 474.9385 347.1076 473.2881 349.0442 471.95 349.8187 473.9947 350.0822 474.6904 350.1224 476.0897 349.3391 476.4292 349.3917 476.4065 349.1873 475.6284 349.3391 475.5561 350.3844 475.0634 349.3807 473.9516 348.6011 473.8837 347.9069 473.8246 347.4098 474.5925 347.1535 475.1079 346.6375 476.1459 347.228 477.1445 348.0171 477.7176 349.772 478.9914 353.454 476.6248 352.7722 474.4787 351.978 471.98 348.5807 471.9011 346.5827 472.5398 343.8219 473.4224 341.6597 475.5408 340.9517 478.3665 340.0706 481.8857 342.3926 486.0875 345.6374 487.5051 347.5273 488.3307 349.9077 487.981 351.6436 486.9656 352.6116 486.3992 353.2905 485.4641 353.5313 484.3735 353.9285 482.5734 352.0583 480.9346 350.4581 480.744 348.9668 480.5667 347.385 481.9456 347.9156 483.4369 348.3449 484.6436 350.4698 485.8269 350.7523 483.837 350.7363 483.9494 350.7808 484.1881 350.7596 484.3436" fill="#545454"/>
<path transform="matrix(1,0,0,-1,0,504)" d="M345.6914 471.7157C347.5076 471.1536 349.0566 470.5565 350.4384 469.1987 352.4875 467.1855 352.5503 463.8699 350.2326 462.0997 348.9748 461.1398 347.2404 461.0792 345.8666 461.7705 344.6884 462.3633 344.1241 463.6852 345.3228 464.5539 345.9695 465.0218 346.8696 464.586 347.2397 464.0188 347.147 464.1605 347.347 464.5714 347.2477 464.7598 346.7667 465.6737 345.3578 466.1168 344.7643 464.9795 344.4599 464.3962 344.3585 463.7597 344.4278 463.1034 344.7578 459.9616 348.5288 459.8755 350.5691 461.4442 352.132 462.645 352.2897 464.8247 352.0882 466.6234 351.7414 469.7112 348.6807 471.9997 345.6914 472.1004 345.6943 472.0997 345.6607 471.7252 345.6914 471.7157" fill="#545454"/>
</g>
</g>
<g clip-path="url(#clip_8)">
<g clip-path="url(#clip_9)">
<path transform="matrix(1,0,0,-1,0,504)" d="M78.92908 10.25988H43.55006C43.51794 10.25988 43.49166 10.2336 43.49166 10.20148V9.775907C43.49166 9.743788 43.51794 9.717509 43.55006 9.717509H78.92908C78.9612 9.717509 78.98748 9.743788 78.98748 9.775907V10.20148C78.98748 10.2336 78.9612 10.25988 78.92908 10.25988" fill="#545454"/>
<path transform="matrix(1,0,0,-1,0,504)" d="M10.63325 78.19364V42.81462C10.63325 42.7825 10.60697 42.75695 10.57485 42.75695H10.14928C10.11716 42.75695 10.09088 42.7825 10.09088 42.81462V78.19364C10.09088 78.22576 10.11716 78.25204 10.14928 78.25204H10.57485C10.60697 78.25204 10.63325 78.22576 10.63325 78.19364" fill="#545454"/>
<path transform="matrix(1,0,0,-1,0,504)" d="M20.10761 8.786789C18.60021 8.987532 18.73526 10.46646 19.71853 11.28696 20.38646 11.8432 21.27192 11.9162 22.09753 11.90014 23.13482 11.8797 23.85531 11.12636 24.27942 10.24163 25.09554 8.537867 23.73121 6.861842 22.24936 6.193184 20.70984 5.498977 18.5659 5.902654 17.3264 6.94506 15.20436 8.729851 14.98829 12.27169 16.17085 14.5974 18.7827 19.73789 27.21101 20.27734 31.05141 16.44862 33.25083 14.2565 34.44945 10.43143 32.48728 7.750953 31.30033 6.130406 28.6111 6.155225 27.0307 7.116604 25.61236 7.979436 24.70573 10.0022 25.53279 11.52931 26.25547 12.86225 28.22786 12.8586 29.51262 12.67464 31.1631 12.43886 32.50115 10.50223 30.45575 9.727728 29.76154 9.464207 28.36072 9.424058 28.02201 10.20732 28.04464 10.15549 28.8228 10.35916 28.89506 10.20732 29.3878 9.161997 30.50028 10.16571 30.56671 10.94533 30.62657 11.63954 29.8579 12.13738 29.34327 12.39287 28.30524 12.90896 27.3059 12.31841 26.7336 11.52931 25.45907 9.774447 27.82565 6.092448 29.97251 6.774975 32.47122 7.568459 32.55005 10.96577 31.91132 12.96371 31.02878 15.72521 28.91039 17.88667 26.08465 18.59475 22.56544 19.47583 18.3637 17.15377 16.94608 13.90903 16.12048 12.01912 16.46941 9.639401 17.48554 7.903518 18.052 6.93484 18.98637 6.255962 20.07768 6.01507 21.87707 5.617963 23.5166 7.488162 23.70712 9.088269 23.88451 10.57888 22.50558 12.16147 21.01424 11.63078 19.80759 11.20155 18.62357 9.07659 20.61421 8.794089 20.5018 8.810148 20.2631 8.76635 20.10761 8.786789" fill="#545454"/>
<path transform="matrix(1,0,0,-1,0,504)" d="M32.73547 13.85501C33.29755 12.03883 33.89467 10.48982 35.25169 9.107979 37.26497 7.058936 40.58125 6.996158 42.35144 9.313832 43.31136 10.57158 43.37195 12.306 42.68066 13.67982 42.08792 14.858 40.7652 15.42227 39.89726 14.22365 39.42935 13.57689 39.86514 12.67756 40.4316 12.30673 40.29072 12.39944 39.87974 12.19943 39.69068 12.2987 38.77821 12.78049 38.33438 14.18861 39.47169 14.78208 40.05494 15.08575 40.69148 15.18795 41.34772 15.11933 44.48954 14.78938 44.57568 11.0176 43.00696 8.977313 41.80615 7.414434 39.62644 7.256759 37.82778 7.458963 34.73925 7.804971 32.45078 10.86576 32.35077 13.85501 32.35077 13.85209 32.72598 13.88567 32.73547 13.85501" fill="#545454"/>
<path transform="matrix(1,0,0,-1,0,504)" d="M9.236808 19.65759C9.436821 18.15019 10.91648 18.28524 11.73698 19.26925 12.29322 19.93644 12.36621 20.8219 12.35016 21.64751 12.32972 22.6848 11.57638 23.40529 10.69165 23.82868 8.987886 24.64552 7.311861 23.28119 6.643203 21.79934 5.948995 20.25982 6.352672 18.11588 7.395078 16.87638 9.179869 14.75434 12.72171 14.53827 15.04742 15.72083 20.18791 18.33269 20.72736 26.76099 16.89864 30.60139 14.70652 32.80081 10.88144 33.99943 8.200971 32.03726 6.580425 30.85032 6.605244 28.16108 7.565892 26.58142 8.428724 25.16234 10.45222 24.25571 11.97933 25.08277 13.31226 25.80545 13.30861 27.77785 13.12466 29.0626 12.88888 30.71308 10.95225 32.05113 10.17775 30.00646 9.914225 29.3108 9.874077 27.91143 10.65734 27.57199 10.60478 27.59462 10.80918 28.37278 10.65734 28.44504 9.612015 28.93778 10.61573 30.04953 11.39535 30.11742 12.08955 30.17655 12.58667 29.40861 12.84289 28.89325 13.35898 27.85522 12.76843 26.85662 11.97933 26.28359 10.22447 25.00978 6.542466 27.37636 7.224264 29.52249 8.018478 32.0212 11.41579 32.10003 13.41373 31.46131 16.1745 30.57876 18.33669 28.46037 19.04477 25.63464 19.92585 22.11542 17.60379 17.91368 14.35905 16.49607 12.46914 15.67046 10.08869 16.02012 8.352806 17.03552 7.384858 17.60198 6.70598 18.53708 6.465088 19.62766 6.067981 21.42778 7.93818 23.06658 9.538288 23.2571 11.02963 23.43449 12.61149 22.05556 12.08079 20.56422 11.65157 19.35757 9.526608 18.17428 9.244107 20.1642 9.260167 20.05178 9.215638 19.81308 9.236808 19.65759" fill="#545454"/>
<path transform="matrix(1,0,0,-1,0,504)" d="M14.30503 32.28545C12.48885 32.84753 10.93984 33.44465 9.557997 34.80241 7.508954 36.81568 7.446176 40.13123 9.76385 41.90142 11.0216 42.86134 12.75602 42.92193 14.12984 42.23064 15.30802 41.6379 15.87229 40.31591 14.67367 39.44724 14.02691 38.97933 13.12685 39.41512 12.75675 39.98232 12.84946 39.8407 12.64945 39.42972 12.74872 39.24139 13.22978 38.32746 14.63863 37.88436 15.2321 39.02167 15.5365 39.60492 15.63797 40.24146 15.56862 40.89771 15.23867 44.03952 11.46761 44.12566 9.427331 42.55694 7.864453 41.35613 7.706778 39.17642 7.908251 37.37776 8.25499 34.28996 11.31578 32.00149 14.30503 31.90075 14.30211 31.90148 14.33569 32.27596 14.30503 32.28545" fill="#545454"/>
</g>
</g>
<g clip-path="url(#clip_10)">
<g clip-path="url(#clip_11)">
<path transform="matrix(1,0,0,-1,0,504)" d="M281.1007 10.25988H316.4797C316.5119 10.25988 316.5381 10.2336 316.5381 10.20148V9.775907C316.5381 9.743788 316.5119 9.717509 316.4797 9.717509H281.1007C281.0686 9.717509 281.0423 9.743788 281.0423 9.775907V10.20148C281.0423 10.2336 281.0686 10.25988 281.1007 10.25988" fill="#545454"/>
<path transform="matrix(1,0,0,-1,0,504)" d="M349.3966 78.19364V42.81462C349.3966 42.7825 349.4228 42.75695 349.455 42.75695H349.8805C349.9126 42.75695 349.9389 42.7825 349.9389 42.81462V78.19364C349.9389 78.22576 349.9126 78.25204 349.8805 78.25204H349.455C349.4228 78.25204 349.3966 78.22576 349.3966 78.19364" fill="#545454"/>
<path transform="matrix(1,0,0,-1,0,504)" d="M339.9222 8.786789C341.4296 8.987532 341.2946 10.46646 340.3113 11.28696 339.6433 11.8432 338.7579 11.9162 337.9323 11.90014 336.895 11.8797 336.1745 11.12636 335.7504 10.24163 334.9343 8.537867 336.2986 6.861842 337.7804 6.193184 339.32 5.498977 341.4639 5.902654 342.7034 6.94506 344.8254 8.729851 345.0415 12.27169 343.859 14.5974 341.2471 19.73789 332.8188 20.27734 328.9784 16.44862 326.779 14.2565 325.5804 10.43143 327.5425 7.750953 328.7295 6.130406 331.4187 6.155225 332.9991 7.116604 334.4174 7.979436 335.3241 10.0022 334.497 11.52931 333.7743 12.86225 331.8019 12.8586 330.5172 12.67464 328.8667 12.43886 327.5287 10.50223 329.5741 9.727728 330.2683 9.464207 331.6691 9.424058 332.0078 10.20732 331.9852 10.15549 331.207 10.35916 331.1347 10.20732 330.642 9.161997 329.5295 10.16571 329.4631 10.94533 329.4032 11.63954 330.1719 12.13738 330.6865 12.39287 331.7246 12.90896 332.7239 12.31841 333.2962 11.52931 334.5707 9.774447 332.2042 6.092448 330.0573 6.774975 327.5586 7.568459 327.4798 10.96577 328.1185 12.96371 329.001 15.72521 331.1194 17.88667 333.9452 18.59475 337.4644 19.47583 341.6661 17.15377 343.0837 13.90903 343.9093 12.01912 343.5604 9.639401 342.5443 7.903518 341.9778 6.93484 341.0434 6.255962 339.9521 6.01507 338.1527 5.617963 336.5132 7.488162 336.3227 9.088269 336.1453 10.57888 337.5242 12.16147 339.0156 11.63078 340.2222 11.20155 341.4062 9.07659 339.4156 8.794089 339.528 8.810148 339.7667 8.76635 339.9222 8.786789" fill="#545454"/>
<path transform="matrix(1,0,0,-1,0,504)" d="M327.2943 13.85501C326.7323 12.03883 326.1351 10.48982 324.7781 9.107979 322.7648 7.058936 319.4486 6.996158 317.6784 9.313832 316.7184 10.57158 316.6579 12.306 317.3491 13.67982 317.9419 14.858 319.2646 15.42227 320.1325 14.22365 320.6005 13.57689 320.1647 12.67756 319.5982 12.30673 319.7391 12.39944 320.1501 12.19943 320.3391 12.2987 321.2516 12.78049 321.6954 14.18861 320.5581 14.78208 319.9749 15.08575 319.3383 15.18795 318.6821 15.11933 315.5403 14.78938 315.4541 11.0176 317.0228 8.977313 318.2237 7.414434 320.4034 7.256759 322.202 7.458963 325.2906 7.804971 327.579 10.86576 327.679 13.85501 327.679 13.85209 327.3038 13.88567 327.2943 13.85501" fill="#545454"/>
<path transform="matrix(1,0,0,-1,0,504)" d="M350.793 19.65759C350.593 18.15019 349.1133 18.28524 348.2928 19.26925 347.7366 19.93644 347.6636 20.8219 347.6797 21.64751 347.7001 22.6848 348.4534 23.40529 349.3382 23.82868 351.0419 24.64552 352.7179 23.28119 353.3866 21.79934 354.0808 20.25982 353.6771 18.11588 352.6347 16.87638 350.8499 14.75434 347.3081 14.53827 344.9824 15.72083 339.8419 18.33269 339.3024 26.76099 343.1312 30.60139 345.3233 32.80081 349.1484 33.99943 351.8288 32.03726 353.4494 30.85032 353.4246 28.16108 352.4639 26.58142 351.6011 25.16234 349.5776 24.25571 348.0505 25.08277 346.7175 25.80545 346.7212 27.77785 346.9051 29.0626 347.1409 30.71308 349.0776 32.05113 349.8521 30.00646 350.1156 29.3108 350.1557 27.91143 349.3725 27.57199 349.425 27.59462 349.2206 28.37278 349.3725 28.44504 350.4178 28.93778 349.4141 30.04953 348.6345 30.11742 347.9403 30.17655 347.4431 29.40861 347.1869 28.89325 346.6708 27.85522 347.2614 26.85662 348.0505 26.28359 349.8053 25.00978 353.4873 27.37636 352.8055 29.52249 352.0113 32.0212 348.614 32.10003 346.6161 31.46131 343.8553 30.57876 341.6931 28.46037 340.985 25.63464 340.104 22.11542 342.426 17.91368 345.6708 16.49607 347.5607 15.67046 349.9411 16.02012 351.677 17.03552 352.6449 17.60198 353.3238 18.53708 353.5647 19.62766 353.9618 21.42778 352.0916 23.06658 350.4915 23.2571 349.0002 23.43449 347.4183 22.05556 347.949 20.56422 348.3782 19.35757 350.5032 18.17428 350.7857 20.1642 350.7696 20.05178 350.8142 19.81308 350.793 19.65759" fill="#545454"/>
<path transform="matrix(1,0,0,-1,0,504)" d="M345.7248 32.28545C347.541 32.84753 349.09 33.44465 350.4718 34.80241 352.5209 36.81568 352.5836 40.13123 350.266 41.90142 349.0082 42.86134 347.2738 42.92193 345.9 42.23064 344.7218 41.6379 344.1575 40.31591 345.3561 39.44724 346.0029 38.97933 346.903 39.41512 347.2731 39.98232 347.1803 39.8407 347.3804 39.42972 347.2811 39.24139 346.8 38.32746 345.3912 37.88436 344.7977 39.02167 344.4933 39.60492 344.3918 40.24146 344.4612 40.89771 344.7911 44.03952 348.5622 44.12566 350.6025 42.55694 352.1654 41.35613 352.323 39.17642 352.1216 37.37776 351.7748 34.28996 348.714 32.00149 345.7248 31.90075 345.7277 31.90148 345.6941 32.27596 345.7248 32.28545" fill="#545454"/>
</g>
</g>
<g clip-path="url(#clip_12)">
<g clip-path="url(#clip_13)">
<path transform="matrix(.75,0,0,.75,42.98793,493.64906)" stroke-width="1" stroke-linecap="butt" stroke-miterlimit="4" stroke-linejoin="miter" fill="none" stroke="#524430" d="M0 .5H365.415"/>
<path transform="matrix(0,.75,-.75,-0,10.60468,42.503206)" stroke-width="1" stroke-linecap="butt" stroke-miterlimit="4" stroke-linejoin="miter" fill="none" stroke="#524430" d="M0 .5H557.9099"/>
<path transform="matrix(0,.75,-.75,-0,350.1126,42.990999)" stroke-width="1" stroke-linecap="butt" stroke-miterlimit="4" stroke-linejoin="miter" fill="none" stroke="#524430" d="M0 .5H557.9089"/>
<path transform="matrix(.75,0,0,.75,43.48753,9.5520939)" stroke-width="1" stroke-linecap="butt" stroke-miterlimit="4" stroke-linejoin="miter" fill="none" stroke="#524430" d="M0 .5H364.0777"/>
<text fill="#524430" xml:space="preserve" transform="matrix(.75 0 0 .75 36.225 54.9765)" font-size="24" font-family="Pirou"><tspan y="20" x="121.6406">M</tspan></text>
<text fill="#524430" xml:space="preserve" transform="matrix(.75 0 0 .75 36.225 54.9765)" font-size="24" font-family="Pirou"><tspan y="20" x="145.9046">A</tspan></text>
<text fill="#524430" xml:space="preserve" transform="matrix(.75 0 0 .75 36.225 54.9765)" font-size="24" font-family="Pirou"><tspan y="20" x="167.0245">S</tspan></text>
<text fill="#524430" xml:space="preserve" transform="matrix(.75 0 0 .75 36.225 54.9765)" font-size="24" font-family="Pirou"><tspan y="20" x="184.6884">S</tspan></text>
<text fill="#524430" xml:space="preserve" transform="matrix(.75 0 0 .75 36.225 54.9765)" font-size="24" font-family="Pirou"><tspan y="20" x="202.3524">A</tspan></text>
<text fill="#524430" xml:space="preserve" transform="matrix(.75 0 0 .75 36.225 54.9765)" font-size="24" font-family="Pirou"><tspan y="20" x="223.4723">G</tspan></text>
<text fill="#524430" xml:space="preserve" transform="matrix(.75 0 0 .75 36.225 54.9765)" font-size="24" font-family="Pirou"><tspan y="20" x="244.1123">E</tspan></text>
<text fill="#524430" xml:space="preserve" transform="matrix(.75 0 0 .75 36 436.51734)" font-size="24" font-family="Pirou"><tspan y="20" x="0">N</tspan></text>
<text fill="#524430" xml:space="preserve" transform="matrix(.75 0 0 .75 36 436.51734)" font-size="24" font-family="Pirou"><tspan y="20" x="19.87194">A</tspan></text>
<text fill="#524430" xml:space="preserve" transform="matrix(.75 0 0 .75 36 436.51734)" font-size="24" font-family="Pirou"><tspan y="20" x="40.99189">M</tspan></text>
<text fill="#524430" xml:space="preserve" transform="matrix(.75 0 0 .75 36 436.51734)" font-size="24" font-family="Pirou"><tspan y="20" x="65.25581">E</tspan></text>
<text fill="#524430" xml:space="preserve" transform="matrix(.75 0 0 .75 36 436.51734)" font-size="24" font-family="Pirou"><tspan y="20" x="83.47176">:</tspan></text>
</g>
</g>
</svg>
